<?xml version="1.0" standalone="no"?>
<!DOCTYPE svg PUBLIC "-//W3C//DTD SVG 20010904//EN"
 "http://www.w3.org/TR/2001/REC-SVG-20010904/DTD/svg10.dtd">
<svg version="1.0" xmlns="http://www.w3.org/2000/svg"
 width="16.000000pt" height="16.000000pt" viewBox="0 0 16.000000 16.000000"
 preserveAspectRatio="xMidYMid meet">
<metadata>
Created by potrace 1.11, written by Peter Selinger 2001-2013
</metadata>
<g transform="translate(0.000000,16.000000) scale(0.000751,-0.000751)"
fill="#000000" stroke="none">
<path d="M10447 21294 c-1 -1 -60 -5 -131 -9 -71 -4 -136 -8 -145 -10 -9 -1
-47 -6 -86 -9 -123 -12 -139 -14 -265 -36 -30 -5 -73 -12 -95 -16 -72 -10
-326 -68 -460 -103 -89 -24 -423 -135 -470 -156 -16 -8 -55 -24 -85 -35 -311
-119 -750 -368 -1065 -604 -265 -198 -529 -441 -746 -686 -381 -430 -701 -951
-896 -1460 -58 -152 -130 -369 -148 -447 -2 -10 -13 -52 -24 -93 -11 -41 -22
-86 -25 -100 -2 -14 -11 -54 -20 -90 -8 -36 -17 -78 -19 -95 -3 -16 -12 -70
-20 -120 -9 -49 -19 -112 -22 -140 -4 -27 -8 -62 -10 -77 -2 -14 -7 -61 -10
-103 -4 -42 -8 -85 -10 -95 -4 -21 -18 -349 -18 -425 0 -66 14 -372 18 -393 1
-9 6 -49 9 -87 4 -39 8 -80 10 -91 2 -12 7 -45 11 -75 3 -30 8 -65 11 -79 2
-14 6 -36 9 -50 3 -14 9 -47 15 -75 12 -58 18 -90 25 -125 11 -58 83 -325 98
-360 3 -8 12 -38 20 -65 18 -63 120 -329 158 -413 16 -34 29 -65 29 -67 0 -3
29 -65 65 -139 73 -149 156 -303 322 -596 110 -195 145 -259 211 -380 19 -36
38 -69 42 -75 4 -5 23 -37 41 -70 38 -71 60 -110 74 -133 104 -173 157 -259
194 -317 25 -38 48 -75 51 -81 5 -10 184 -290 322 -502 31 -48 89 -136 128
-197 39 -60 140 -216 225 -345 85 -129 173 -264 195 -300 23 -36 67 -105 100
-155 32 -49 147 -232 256 -405 108 -173 204 -326 213 -340 21 -33 33 -52 52
-87 9 -15 69 -117 133 -226 64 -109 116 -201 116 -204 0 -2 8 -17 18 -31 11
-15 36 -58 57 -97 21 -38 63 -115 93 -170 89 -159 173 -320 321 -615 125 -249
166 -336 147 -319 -7 7 -191 -48 -339 -100 -336 -118 -712 -311 -1017 -519
-90 -62 -279 -205 -338 -256 -15 -13 -52 -45 -82 -71 -105 -91 -324 -310 -420
-421 -37 -42 -191 -235 -215 -267 -11 -16 -37 -52 -59 -80 -21 -29 -43 -62
-49 -74 -6 -13 -14 -23 -19 -23 -4 0 -8 -5 -8 -11 0 -6 -11 -25 -24 -42 -88
-119 -280 -483 -373 -707 -70 -169 -174 -469 -189 -545 -1 -5 -16 -68 -33
-140 -32 -137 -49 -224 -66 -340 -3 -22 -8 -51 -10 -65 -3 -14 -7 -56 -11 -95
-4 -38 -8 -73 -10 -76 -7 -13 -18 -267 -18 -434 0 -171 9 -390 18 -445 3 -14
7 -52 11 -85 10 -100 33 -245 55 -350 12 -55 23 -111 26 -125 3 -14 18 -77 35
-140 325 -1230 1174 -2270 2316 -2837 76 -38 158 -77 183 -88 25 -10 64 -27
88 -37 309 -135 817 -269 1147 -303 33 -4 71 -8 85 -11 155 -26 781 -26 950 0
14 2 50 7 80 11 77 9 113 14 200 29 19 3 46 8 60 10 14 2 78 16 142 30 569
124 1112 367 1618 722 30 22 57 41 60 45 3 3 23 18 45 34 199 146 542 474 716
685 481 581 797 1236 945 1962 13 65 26 139 30 165 3 27 7 55 9 63 15 86 31
236 40 385 5 77 5 499 0 545 -2 19 -6 69 -10 110 -6 78 -23 227 -30 270 -2 14
-7 43 -11 65 -5 34 -19 108 -40 215 -14 70 -97 384 -111 420 -3 8 -7 20 -9 25
-7 27 -80 220 -120 319 -174 425 -455 876 -768 1231 -133 152 -343 354 -521
504 -147 123 -435 321 -629 430 -96 54 -302 158 -406 204 -147 65 -490 187
-525 187 -8 0 -15 5 -15 12 0 17 276 565 380 753 15 28 44 82 65 120 35 65
191 344 239 426 209 362 405 683 697 1141 52 81 101 159 109 173 24 39 207
319 380 580 88 132 182 276 210 320 29 44 99 152 156 240 58 88 108 167 111
175 4 8 10 17 13 20 21 16 381 624 510 862 84 155 525 1046 570 1153 103 242
188 509 236 740 15 73 44 226 48 255 14 93 35 263 41 330 4 41 9 98 11 125 6
55 5 489 0 545 -2 19 -6 80 -10 135 -9 132 -13 167 -41 355 -19 130 -24 159
-50 285 -9 44 -23 107 -32 140 -8 33 -16 65 -17 70 -24 106 -108 360 -179 540
-157 398 -433 876 -700 1211 -322 405 -683 744 -1082 1016 -104 71 -273 178
-280 178 -2 0 -39 21 -82 46 -71 43 -394 204 -407 204 -3 0 -29 11 -58 24
-145 67 -485 186 -660 232 -5 1 -9 2 -10 4 -2 1 -10 3 -19 5 -9 1 -65 15 -125
30 -59 15 -117 29 -128 31 -12 2 -32 6 -46 9 -14 3 -41 8 -60 11 -19 3 -51 9
-70 14 -19 5 -87 16 -150 25 -63 9 -126 18 -140 20 -14 2 -52 7 -85 10 -33 3
-76 8 -95 10 -111 13 -643 28 -653 19z m-362 -14024 c93 -263 264 -789 280
-861 2 -8 11 -40 20 -70 66 -212 177 -656 249 -994 21 -95 35 -143 39 -130 4
11 24 106 46 210 65 312 182 777 268 1065 76 256 275 855 288 868 4 5 214 -55
322 -92 209 -71 431 -178 623 -301 74 -47 232 -161 286 -207 134 -112 229
-204 369 -359 141 -155 313 -413 420 -629 79 -160 177 -417 211 -555 4 -16 8
-34 10 -40 7 -30 43 -205 48 -235 29 -180 39 -310 40 -490 0 -121 -9 -300 -18
-347 -2 -10 -7 -43 -11 -73 -44 -339 -177 -735 -351 -1042 -192 -339 -453
-644 -759 -889 -335 -267 -743 -464 -1165 -563 -116 -27 -130 -30 -276 -51
-273 -40 -596 -35 -879 11 -123 20 -123 21 -180 34 -309 75 -644 206 -831 326
-29 19 -56 34 -59 34 -6 0 -165 104 -195 127 -127 99 -230 182 -251 202 -15
14 -48 47 -75 72 -346 328 -617 755 -769 1214 -32 94 -79 267 -90 324 -3 14
-7 37 -10 51 -5 24 -18 103 -29 180 -16 107 -20 196 -20 390 0 206 5 283 24
415 5 33 12 78 15 100 4 22 8 48 11 57 3 10 7 30 10 45 51 286 216 689 400
974 150 233 315 431 502 599 46 41 92 83 102 92 10 10 67 54 126 99 265 199
559 351 886 458 63 21 332 91 334 88 1 -1 18 -49 39 -107z"/>
</g>
</svg>
