<?xml version="1.0" encoding="utf-8"?>
<!-- Generator: Adobe Illustrator 19.1.1, SVG Export Plug-In . SVG Version: 6.00 Build 0)  -->
<svg version="1.1" id="Warstwa_1" xmlns="http://www.w3.org/2000/svg" xmlns:xlink="http://www.w3.org/1999/xlink" x="0px" y="0px"
	 viewBox="0 0 572.1 181.2" style="enable-background:new 0 0 572.1 181.2;" xml:space="preserve">
<style type="text/css">
	.st0{fill:#EA6E28;}
	.st1{clip-path:url(#SVGID_2_);fill:#1B181C;}
</style>
<g>
	<rect y="87.2" class="st0" width="89.2" height="6.7"/>
	<rect x="43.6" y="56.9" transform="matrix(0.2586 0.966 -0.966 0.2586 133.6123 30.483)" class="st0" width="6.7" height="90.8"/>
	<rect x="48" y="67.8" transform="matrix(0.5014 0.8652 -0.8652 0.5014 123.5002 11.9578)" class="st0" width="6.7" height="90.7"/>
	<rect x="87.2" y="0" transform="matrix(0.7071 0.7071 -0.7071 0.7071 90.5847 -37.5233)" class="st0" width="6.7" height="181.2"/>
	<rect x="87.2" y="0" transform="matrix(0.8661 0.4999 -0.4999 0.8661 57.4076 -33.152)" class="st0" width="6.7" height="181.2"/>
	<rect x="87.2" y="0" transform="matrix(0.966 0.2586 -0.2586 0.966 26.5096 -20.3464)" class="st0" width="6.7" height="181.2"/>
	<rect x="87.2" class="st0" width="6.7" height="181.2"/>
	
		<rect x="0" y="87.2" transform="matrix(0.2588 0.9659 -0.9659 0.2588 154.6377 -20.3617)" class="st0" width="181.2" height="6.7"/>
	<rect x="0" y="87.2" transform="matrix(0.5 0.866 -0.866 0.5 123.7407 -33.1589)" class="st0" width="181.2" height="6.7"/>
	<rect x="0" y="87.2" transform="matrix(0.7071 0.7071 -0.7071 0.7071 90.5845 -37.5229)" class="st0" width="181.2" height="6.7"/>
	<rect x="0" y="87.2" transform="matrix(0.866 0.5 -0.5 0.866 57.4291 -33.1573)" class="st0" width="181.2" height="6.7"/>
	<rect x="1.6" y="75.5" transform="matrix(0.9662 0.2578 -0.2578 0.9662 21.9122 -9.438)" class="st0" width="90.8" height="6.7"/>
	<g>
		<defs>
			<rect id="SVGID_1_" width="572.1" height="181.2"/>
		</defs>
		<clipPath id="SVGID_2_">
			<use xlink:href="#SVGID_1_"  style="overflow:visible;"/>
		</clipPath>
		<path class="st1" d="M130.8,99.1V57.8h6.9V98c0,2.1,0.6,3.7,1.8,4.9c1.2,1.2,2.8,1.8,4.7,1.8v6.1
			C135.2,110.8,130.8,106.9,130.8,99.1"/>
		<path class="st1" d="M181.4,91.4h-27.9c0,4.5,1.2,8,3.7,10.4c2.2,2.1,5,3.2,8.5,3.2c3.9,0,7.2-1.1,9.8-3.4l2.9,5
			c-1.1,1.1-2.7,2-4.9,2.7c-2.7,1-5.8,1.5-9.2,1.5c-4.9,0-9-1.7-12.4-5c-3.8-3.6-5.7-8.5-5.7-14.7c0-6.4,1.9-11.5,5.8-15.4
			c3.5-3.4,7.6-5.2,12.3-5.2c5.5,0,9.8,1.6,13,4.7c3,3,4.6,7,4.6,11.9C182,88.7,181.8,90.1,181.4,91.4 M164.8,76.4
			c-3.1,0-5.6,1-7.7,3c-2,1.9-3.1,4.2-3.4,7h21.4c0-2.8-0.9-5.1-2.6-6.9C170.6,77.4,168,76.4,164.8,76.4"/>
		<path class="st1" d="M229.6,59l-2.4,6.2c-2.3-1.7-6-2.5-10.9-2.5c-4.7,0-8.4,2-11.2,6c-2.8,4-4.2,9.2-4.2,15.5
			c0,6,1.4,10.9,4.3,14.7c2.9,3.7,6.6,5.6,11.2,5.6c5,0,8.8-1.8,11.5-5.3l4,5.5c-4.2,4.2-9.6,6.3-16.2,6.3c-6.9,0-12.4-2.5-16.3-7.5
			c-4-5-6-11.6-6-19.7c0-7.9,2.1-14.5,6.4-19.7c4.2-5.2,9.7-7.8,16.5-7.8C221.8,56.2,226.3,57.1,229.6,59"/>
		<path class="st1" d="M259.7,105.6c-2.7,3.4-7,5.2-12.6,5.2c-3,0-5.7-1.1-7.9-3.3c-2.2-2.2-3.3-4.9-3.3-8.2c0-3.9,1.7-7.3,5.2-10
			c3.4-2.7,7.8-4.1,13.1-4.1c1.4,0,3.1,0.3,4.9,0.9c0-6.3-2.8-9.4-8.4-9.4c-4.3,0-7.6,1.2-9.9,3.5l-2.9-5.8c1.3-1.1,3.1-2,5.4-2.7
			c2.3-0.8,4.5-1.1,6.6-1.1c5.6,0,9.7,1.3,12.2,3.8c2.5,2.6,3.8,6.6,3.8,12.2v13.9c0,3.4,1,5.7,3,6.8v3.4c-2.8,0-4.9-0.4-6.3-1.2
			C261.3,108.8,260.3,107.5,259.7,105.6 M259.1,91c-2.2-0.5-3.7-0.7-4.6-0.7c-3.5,0-6.3,0.9-8.5,2.7c-2.2,1.8-3.3,3.9-3.3,6.3
			c0,4,2.4,6,7.1,6c3.5,0,6.5-1.7,9.2-5V91z"/>
		<path class="st1" d="M295.2,78c-1.5-1-3-1.6-4.5-1.6c-2.4,0-4.6,1.1-6.4,3.4c-1.8,2.2-2.7,4.9-2.7,8.1v22.2h-6.9V71.3h6.9v6.2
			c2.5-4.6,6.2-6.9,11.2-6.9c1.2,0,3,0.2,5.3,0.7L295.2,78z"/>
		<path class="st1" d="M297.7,90.6c0-6,1.6-10.8,4.8-14.5c3.2-3.7,7.5-5.5,12.7-5.5c5.5,0,9.8,1.8,12.9,5.3
			c3.1,3.5,4.6,8.4,4.6,14.7c0,6.2-1.6,11.2-4.7,14.8c-3.1,3.6-7.4,5.4-12.8,5.4c-5.5,0-9.8-1.8-12.9-5.5
			C299.3,101.7,297.7,96.8,297.7,90.6 M305,90.6c0,9.7,3.4,14.6,10.3,14.6c3.2,0,5.7-1.3,7.5-3.9c1.8-2.6,2.7-6.2,2.7-10.7
			c0-9.6-3.4-14.4-10.3-14.4c-3.1,0-5.6,1.3-7.5,3.8C305.9,82.6,305,86.1,305,90.6"/>
		<path class="st1" d="M345.1,71.3V96c0,6,2.6,9,7.8,9c2.3,0,4.3-0.7,6.2-2c1.9-1.3,3.1-2.8,3.7-4.5V71.3h6.9v38.7h-6.9v-5.4
			c-0.8,1.5-2.3,2.9-4.6,4.2c-2.3,1.3-4.6,1.9-6.8,1.9c-4.2,0-7.5-1.2-9.7-3.7c-2.3-2.4-3.4-5.9-3.4-10.4V71.3H345.1z"/>
		<path class="st1" d="M383.2,107.3l-2.4,3.5h-3.4V58.1h6.9v16.1c0.7-0.9,1.9-1.7,3.7-2.5c1.8-0.7,3.6-1.1,5.3-1.1
			c5.3,0,9.6,1.8,12.9,5.5c3.3,3.7,4.9,8.3,4.9,13.9c0,6.5-1.7,11.5-5,15.2c-3.3,3.7-7.8,5.6-13.4,5.6c-1.8,0-3.6-0.3-5.4-1
			C385.4,109.1,384.1,108.2,383.2,107.3 M384.2,79.4v22.3c0,0.4,0.9,1,2.6,1.9c1.7,0.9,3,1.3,3.9,1.3c4.7,0,8-1.1,10.1-3.4
			c2-2.2,3-6,3-11.3c0-4.4-1.2-7.8-3.5-10.3c-2.4-2.5-5.5-3.7-9.5-3.7c-0.8,0-2,0.4-3.5,1.1C385.6,78.2,384.6,78.9,384.2,79.4"/>
		<path class="st1" d="M418.6,110.1V77.1h-5.3v-5.8h12.2v38.7H418.6z M422.4,56.7c1.2,0,2.2,0.4,3,1.2c0.8,0.8,1.2,1.8,1.2,3
			c0,1.2-0.4,2.2-1.2,3c-0.8,0.8-1.8,1.2-3,1.2c-1.2,0-2.2-0.4-3-1.2c-0.8-0.8-1.2-1.8-1.2-3c0-1.2,0.4-2.2,1.2-3
			C420.2,57.1,421.2,56.7,422.4,56.7"/>
		<path class="st1" d="M466.6,91.4h-27.9c0,4.5,1.2,8,3.7,10.4c2.2,2.1,5,3.2,8.5,3.2c3.9,0,7.2-1.1,9.8-3.4l2.9,5
			c-1.1,1.1-2.7,2-4.9,2.7c-2.7,1-5.8,1.5-9.2,1.5c-4.9,0-9-1.7-12.4-5c-3.8-3.6-5.7-8.5-5.7-14.7c0-6.4,1.9-11.5,5.8-15.4
			c3.5-3.4,7.6-5.2,12.3-5.2c5.5,0,9.8,1.6,13,4.7c3,3,4.6,7,4.6,11.9C467.1,88.7,466.9,90.1,466.6,91.4 M449.9,76.4
			c-3.1,0-5.6,1-7.7,3c-2,1.9-3.1,4.2-3.4,7h21.4c0-2.8-0.9-5.1-2.6-6.9C455.8,77.4,453.2,76.4,449.9,76.4"/>
		<path class="st1" d="M493.2,78c-1.5-1-3-1.6-4.5-1.6c-2.4,0-4.6,1.1-6.4,3.4c-1.8,2.2-2.7,4.9-2.7,8.1v22.2h-6.9V71.3h6.9v6.2
			c2.5-4.6,6.2-6.9,11.2-6.9c1.2,0,3,0.2,5.3,0.7L493.2,78z"/>
		<path class="st1" d="M188.1,125.8H188c-0.2-0.1-0.5-0.1-0.9-0.2c-0.4-0.1-0.7-0.1-1-0.1c-0.9,0-1.5,0.2-1.9,0.6
			c-0.4,0.4-0.6,1.1-0.6,2.1v0.4h3.7v1.7h-3.6v10.4h-2v-10.4h-1.4v-1.7h1.4v-0.4c0-1.4,0.4-2.5,1.1-3.3c0.7-0.8,1.7-1.2,3.1-1.2
			c0.5,0,0.9,0,1.2,0.1c0.4,0,0.7,0.1,1,0.2V125.8z"/>
		<path class="st1" d="M199.7,134.6c0,2-0.5,3.5-1.5,4.7c-1,1.1-2.4,1.7-4.1,1.7c-1.7,0-3.1-0.6-4.1-1.7c-1-1.1-1.5-2.7-1.5-4.7
			c0-2,0.5-3.5,1.5-4.7s2.4-1.7,4.1-1.7c1.7,0,3,0.6,4.1,1.7C199.2,131.1,199.7,132.7,199.7,134.6 M197.6,134.6
			c0-1.6-0.3-2.7-0.9-3.5c-0.6-0.8-1.5-1.1-2.5-1.1c-1.1,0-2,0.4-2.6,1.1c-0.6,0.8-0.9,1.9-0.9,3.5c0,1.5,0.3,2.7,0.9,3.4
			c0.6,0.8,1.5,1.2,2.6,1.2c1.1,0,1.9-0.4,2.5-1.2C197.3,137.3,197.6,136.2,197.6,134.6"/>
		<polygon class="st1" points="212.6,128.6 205.6,145.1 203.4,145.1 205.7,140.1 200.9,128.6 203.1,128.6 206.8,137.5 210.5,128.6 
					"/>
		<path class="st1" d="M224.8,134.8h-8.9c0,0.7,0.1,1.4,0.3,1.9c0.2,0.6,0.5,1,0.9,1.4c0.4,0.3,0.8,0.6,1.3,0.8
			c0.5,0.2,1.1,0.3,1.7,0.3c0.8,0,1.6-0.2,2.5-0.5c0.8-0.3,1.4-0.6,1.8-1h0.1v2.2c-0.7,0.3-1.4,0.5-2.1,0.7
			c-0.7,0.2-1.5,0.3-2.2,0.3c-2,0-3.6-0.5-4.7-1.6c-1.1-1.1-1.7-2.6-1.7-4.6c0-2,0.5-3.5,1.6-4.7c1.1-1.2,2.5-1.7,4.3-1.7
			c1.6,0,2.9,0.5,3.8,1.4c0.9,1,1.3,2.3,1.3,4.1V134.8z M222.8,133.3c0-1.1-0.3-1.9-0.8-2.5c-0.5-0.6-1.3-0.9-2.4-0.9
			c-1.1,0-2,0.3-2.6,1c-0.6,0.6-1,1.4-1.1,2.4H222.8z"/>
		<path class="st1" d="M235.3,130.8h-0.1c-0.3-0.1-0.6-0.1-0.9-0.2c-0.3,0-0.6,0-1,0c-0.6,0-1.2,0.1-1.8,0.4
			c-0.6,0.3-1.1,0.6-1.7,1.1v8.6h-2v-12.1h2v1.8c0.8-0.6,1.5-1.1,2.1-1.4c0.6-0.3,1.2-0.4,1.9-0.4c0.4,0,0.6,0,0.8,0
			c0.2,0,0.4,0.1,0.7,0.1V130.8z"/>
		<path class="st1" d="M254.8,140.7h-2v-1.3c-0.6,0.5-1.2,0.9-1.8,1.2c-0.6,0.3-1.3,0.4-2.1,0.4c-1.4,0-2.6-0.6-3.4-1.7
			c-0.8-1.1-1.3-2.6-1.3-4.6c0-1,0.1-1.9,0.4-2.7c0.3-0.8,0.7-1.5,1.2-2c0.5-0.5,1.1-1,1.7-1.3c0.7-0.3,1.3-0.4,2-0.4
			c0.6,0,1.2,0.1,1.7,0.2c0.5,0.1,1,0.3,1.5,0.6v-5.2h2V140.7z M252.7,137.7v-6.9c-0.5-0.2-1-0.4-1.5-0.5c-0.4-0.1-0.9-0.1-1.4-0.1
			c-1.1,0-2,0.4-2.7,1.2c-0.6,0.8-1,1.9-1,3.4c0,1.4,0.2,2.5,0.7,3.3c0.5,0.7,1.3,1.1,2.4,1.1c0.6,0,1.2-0.1,1.8-0.4
			C251.7,138.4,252.2,138.1,252.7,137.7"/>
		<path class="st1" d="M268.6,134.8h-8.9c0,0.7,0.1,1.4,0.3,1.9c0.2,0.6,0.5,1,0.9,1.4c0.4,0.3,0.8,0.6,1.3,0.8
			c0.5,0.2,1.1,0.3,1.7,0.3c0.8,0,1.6-0.2,2.5-0.5c0.8-0.3,1.4-0.6,1.8-1h0.1v2.2c-0.7,0.3-1.4,0.5-2.1,0.7
			c-0.7,0.2-1.5,0.3-2.2,0.3c-2,0-3.6-0.5-4.7-1.6c-1.1-1.1-1.7-2.6-1.7-4.6c0-2,0.5-3.5,1.6-4.7s2.5-1.7,4.2-1.7
			c1.6,0,2.9,0.5,3.8,1.4c0.9,1,1.3,2.3,1.3,4.1V134.8z M266.7,133.3c0-1.1-0.3-1.9-0.8-2.5c-0.5-0.6-1.3-0.9-2.4-0.9
			c-1.1,0-2,0.3-2.6,1c-0.6,0.6-1,1.4-1.1,2.4H266.7z"/>
		<path class="st1" d="M283.1,141c0,1.4-0.4,2.5-1.1,3.2c-0.7,0.7-1.7,1.1-2.9,1.1c-0.3,0-0.7,0-1.1-0.1c-0.5-0.1-0.9-0.1-1.2-0.2
			V143h0.1c0.2,0.1,0.5,0.2,0.8,0.3c0.3,0.1,0.7,0.2,1,0.2c0.5,0,0.9-0.1,1.3-0.2c0.3-0.1,0.6-0.4,0.7-0.6c0.2-0.3,0.3-0.6,0.3-1
			c0-0.4,0.1-0.9,0.1-1.5v-9.7h-2.5v-1.7h4.5V141z M283.3,126.6H281v-2.1h2.3V126.6z"/>
		<path class="st1" d="M297.2,134.6c0,2-0.5,3.5-1.5,4.7c-1,1.1-2.4,1.7-4.1,1.7c-1.7,0-3.1-0.6-4.1-1.7c-1-1.1-1.5-2.7-1.5-4.7
			c0-2,0.5-3.5,1.5-4.7c1-1.1,2.4-1.7,4.1-1.7c1.7,0,3,0.6,4.1,1.7C296.7,131.1,297.2,132.7,297.2,134.6 M295.1,134.6
			c0-1.6-0.3-2.7-0.9-3.5c-0.6-0.8-1.5-1.1-2.5-1.1c-1.1,0-2,0.4-2.6,1.1c-0.6,0.8-0.9,1.9-0.9,3.5c0,1.5,0.3,2.7,0.9,3.4
			c0.6,0.8,1.5,1.2,2.6,1.2c1.1,0,1.9-0.4,2.5-1.2C294.8,137.3,295.1,136.2,295.1,134.6"/>
		<path class="st1" d="M310.1,140.7h-2v-1.3c-0.7,0.5-1.3,1-2,1.2c-0.6,0.3-1.3,0.4-2.1,0.4c-1.3,0-2.3-0.4-3-1.2
			c-0.7-0.8-1.1-1.9-1.1-3.4v-7.8h2v6.9c0,0.6,0,1.1,0.1,1.6c0.1,0.4,0.2,0.8,0.4,1.1c0.2,0.3,0.4,0.5,0.8,0.7
			c0.3,0.1,0.8,0.2,1.4,0.2c0.5,0,1.1-0.1,1.7-0.4c0.6-0.3,1.2-0.6,1.7-1v-9h2V140.7z"/>
		<path class="st1" d="M321.3,130.8h-0.1c-0.3-0.1-0.6-0.1-0.9-0.2c-0.3,0-0.6,0-1,0c-0.6,0-1.2,0.1-1.8,0.4
			c-0.6,0.3-1.1,0.6-1.7,1.1v8.6h-2v-12.1h2v1.8c0.8-0.6,1.5-1.1,2.1-1.4c0.6-0.3,1.2-0.4,1.9-0.4c0.4,0,0.6,0,0.8,0
			c0.2,0,0.4,0.1,0.7,0.1V130.8z"/>
		<path class="st1" d="M341.6,134.5c0,1-0.1,1.9-0.4,2.7c-0.3,0.8-0.7,1.5-1.2,2.1c-0.5,0.5-1,0.9-1.7,1.2c-0.6,0.3-1.3,0.4-2,0.4
			c-0.6,0-1.2-0.1-1.7-0.2c-0.5-0.1-1-0.3-1.6-0.6v5.1h-2v-16.5h2v1.3c0.5-0.5,1.1-0.8,1.8-1.1c0.7-0.3,1.4-0.5,2.2-0.5
			c1.5,0,2.6,0.5,3.4,1.6C341.2,131,341.6,132.5,341.6,134.5 M339.5,134.5c0-1.5-0.2-2.5-0.7-3.3c-0.5-0.7-1.3-1.1-2.3-1.1
			c-0.6,0-1.2,0.1-1.8,0.4c-0.6,0.3-1.2,0.6-1.7,1v6.8c0.6,0.3,1.1,0.4,1.5,0.5c0.4,0.1,0.9,0.1,1.4,0.1c1.1,0,2-0.4,2.6-1.1
			C339.2,137.2,339.5,136,339.5,134.5"/>
		<path class="st1" d="M355,134.6c0,2-0.5,3.5-1.5,4.7c-1,1.1-2.4,1.7-4.1,1.7c-1.7,0-3.1-0.6-4.1-1.7c-1-1.1-1.5-2.7-1.5-4.7
			c0-2,0.5-3.5,1.5-4.7c1-1.1,2.4-1.7,4.1-1.7c1.7,0,3,0.6,4.1,1.7C354.5,131.1,355,132.7,355,134.6 M352.9,134.6
			c0-1.6-0.3-2.7-0.9-3.5c-0.6-0.8-1.5-1.1-2.5-1.1c-1.1,0-2,0.4-2.6,1.1c-0.6,0.8-0.9,1.9-0.9,3.5c0,1.5,0.3,2.7,0.9,3.4
			c0.6,0.8,1.5,1.2,2.6,1.2c1.1,0,1.9-0.4,2.5-1.2C352.6,137.3,352.9,136.2,352.9,134.6"/>
		<path class="st1" d="M367.9,140.7h-2v-1.3c-0.7,0.5-1.3,1-2,1.2c-0.6,0.3-1.3,0.4-2.1,0.4c-1.3,0-2.3-0.4-3-1.2
			c-0.7-0.8-1.1-1.9-1.1-3.4v-7.8h2v6.9c0,0.6,0,1.1,0.1,1.6c0.1,0.4,0.2,0.8,0.4,1.1c0.2,0.3,0.4,0.5,0.8,0.7
			c0.3,0.1,0.8,0.2,1.4,0.2c0.5,0,1.1-0.1,1.7-0.4c0.6-0.3,1.2-0.6,1.7-1v-9h2V140.7z"/>
		<path class="st1" d="M379.1,130.8H379c-0.3-0.1-0.6-0.1-0.9-0.2c-0.3,0-0.6,0-1,0c-0.6,0-1.2,0.1-1.8,0.4
			c-0.6,0.3-1.1,0.6-1.7,1.1v8.6h-2v-12.1h2v1.8c0.8-0.6,1.5-1.1,2.1-1.4c0.6-0.3,1.2-0.4,1.9-0.4c0.4,0,0.6,0,0.8,0
			c0.2,0,0.4,0.1,0.7,0.1V130.8z"/>
		<path class="st1" d="M399.4,134.5c0,1-0.1,1.9-0.4,2.7c-0.3,0.8-0.7,1.5-1.2,2.1c-0.5,0.5-1,0.9-1.7,1.2c-0.6,0.3-1.3,0.4-2,0.4
			c-0.6,0-1.2-0.1-1.7-0.2c-0.5-0.1-1-0.3-1.6-0.6v5.1h-2v-16.5h2v1.3c0.5-0.5,1.1-0.8,1.8-1.1c0.7-0.3,1.4-0.5,2.2-0.5
			c1.5,0,2.6,0.5,3.4,1.6C399,131,399.4,132.5,399.4,134.5 M397.3,134.5c0-1.5-0.2-2.5-0.7-3.3c-0.5-0.7-1.3-1.1-2.3-1.1
			c-0.6,0-1.2,0.1-1.8,0.4c-0.6,0.3-1.2,0.6-1.7,1v6.8c0.6,0.3,1.1,0.4,1.5,0.5c0.4,0.1,0.9,0.1,1.4,0.1c1.1,0,2-0.4,2.6-1.1
			C397,137.2,397.3,136,397.3,134.5"/>
		<path class="st1" d="M412.6,134.8h-8.9c0,0.7,0.1,1.4,0.3,1.9c0.2,0.6,0.5,1,0.9,1.4c0.4,0.3,0.8,0.6,1.3,0.8
			c0.5,0.2,1.1,0.3,1.7,0.3c0.8,0,1.6-0.2,2.5-0.5c0.8-0.3,1.4-0.6,1.8-1h0.1v2.2c-0.7,0.3-1.4,0.5-2.1,0.7
			c-0.7,0.2-1.5,0.3-2.2,0.3c-2,0-3.6-0.5-4.7-1.6c-1.1-1.1-1.7-2.6-1.7-4.6c0-2,0.5-3.5,1.6-4.7s2.5-1.7,4.2-1.7
			c1.6,0,2.9,0.5,3.8,1.4c0.9,1,1.3,2.3,1.3,4.1V134.8z M410.6,133.3c0-1.1-0.3-1.9-0.8-2.5c-0.5-0.6-1.3-0.9-2.4-0.9
			c-1.1,0-2,0.3-2.6,1c-0.6,0.6-1,1.4-1.1,2.4H410.6z"/>
		<path class="st1" d="M423.1,130.8H423c-0.3-0.1-0.6-0.1-0.9-0.2c-0.3,0-0.6,0-1,0c-0.6,0-1.2,0.1-1.8,0.4
			c-0.6,0.3-1.1,0.6-1.7,1.1v8.6h-2v-12.1h2v1.8c0.8-0.6,1.5-1.1,2.1-1.4c0.6-0.3,1.2-0.4,1.9-0.4c0.4,0,0.6,0,0.8,0
			c0.2,0,0.4,0.1,0.7,0.1V130.8z"/>
		<path class="st1" d="M434.1,137.2c0,1.1-0.5,2-1.4,2.7c-0.9,0.7-2.2,1.1-3.7,1.1c-0.9,0-1.7-0.1-2.5-0.3c-0.7-0.2-1.4-0.4-1.9-0.7
			v-2.3h0.1c0.6,0.5,1.4,0.9,2.1,1.2c0.8,0.3,1.5,0.4,2.3,0.4c0.9,0,1.6-0.1,2.1-0.4c0.5-0.3,0.8-0.7,0.8-1.4c0-0.5-0.1-0.8-0.4-1.1
			c-0.3-0.2-0.8-0.5-1.6-0.6c-0.3-0.1-0.7-0.1-1.1-0.2c-0.5-0.1-0.9-0.2-1.3-0.3c-1.1-0.3-1.8-0.7-2.3-1.2c-0.4-0.5-0.7-1.2-0.7-2
			c0-0.5,0.1-1,0.3-1.4c0.2-0.4,0.5-0.8,0.9-1.2c0.4-0.3,0.9-0.6,1.5-0.8c0.6-0.2,1.3-0.3,2.1-0.3c0.7,0,1.4,0.1,2.2,0.3
			c0.7,0.2,1.4,0.4,1.8,0.6v2.2h-0.1c-0.5-0.4-1.1-0.7-1.9-1c-0.7-0.3-1.5-0.4-2.2-0.4c-0.7,0-1.4,0.1-1.9,0.4
			c-0.5,0.3-0.8,0.7-0.8,1.3c0,0.5,0.2,0.9,0.5,1.1c0.3,0.3,0.8,0.5,1.5,0.6c0.4,0.1,0.8,0.2,1.3,0.3c0.5,0.1,0.9,0.2,1.2,0.2
			c0.9,0.2,1.7,0.6,2.2,1.1C433.9,135.6,434.1,136.3,434.1,137.2"/>
		<path class="st1" d="M447.3,134.6c0,2-0.5,3.5-1.5,4.7c-1,1.1-2.4,1.7-4.1,1.7c-1.7,0-3.1-0.6-4.1-1.7c-1-1.1-1.5-2.7-1.5-4.7
			c0-2,0.5-3.5,1.5-4.7c1-1.1,2.4-1.7,4.1-1.7c1.7,0,3,0.6,4.1,1.7C446.8,131.1,447.3,132.7,447.3,134.6 M445.2,134.6
			c0-1.6-0.3-2.7-0.9-3.5c-0.6-0.8-1.5-1.1-2.5-1.1c-1.1,0-2,0.4-2.6,1.1c-0.6,0.8-0.9,1.9-0.9,3.5c0,1.5,0.3,2.7,0.9,3.4
			c0.6,0.8,1.5,1.2,2.6,1.2c1.1,0,1.9-0.4,2.5-1.2C444.9,137.3,445.2,136.2,445.2,134.6"/>
		<path class="st1" d="M460.4,140.7h-2v-6.9c0-0.6,0-1.1-0.1-1.6s-0.2-0.9-0.4-1.1c-0.2-0.3-0.4-0.5-0.8-0.7
			c-0.3-0.1-0.8-0.2-1.3-0.2c-0.6,0-1.1,0.1-1.7,0.4c-0.6,0.3-1.2,0.6-1.7,1v9h-2v-12.1h2v1.3c0.6-0.5,1.3-0.9,2-1.2
			c0.7-0.3,1.4-0.4,2.1-0.4c1.3,0,2.3,0.4,3,1.2c0.7,0.8,1,1.9,1,3.4V140.7z"/>
		<path class="st1" d="M474,140.7h-2v-6.9c0-0.6,0-1.1-0.1-1.6c-0.1-0.5-0.2-0.9-0.4-1.1c-0.2-0.3-0.4-0.5-0.8-0.7
			c-0.3-0.1-0.8-0.2-1.3-0.2c-0.6,0-1.1,0.1-1.7,0.4c-0.6,0.3-1.2,0.6-1.7,1v9h-2v-12.1h2v1.3c0.6-0.5,1.3-0.9,2-1.2
			c0.7-0.3,1.4-0.4,2.1-0.4c1.3,0,2.3,0.4,3,1.2c0.7,0.8,1,1.9,1,3.4V140.7z"/>
		<path class="st1" d="M487.8,134.8H479c0,0.7,0.1,1.4,0.3,1.9c0.2,0.6,0.5,1,0.9,1.4c0.4,0.3,0.8,0.6,1.3,0.8
			c0.5,0.2,1.1,0.3,1.7,0.3c0.8,0,1.6-0.2,2.5-0.5c0.8-0.3,1.4-0.6,1.8-1h0.1v2.2c-0.7,0.3-1.4,0.5-2.1,0.7
			c-0.7,0.2-1.5,0.3-2.2,0.3c-2,0-3.6-0.5-4.7-1.6c-1.1-1.1-1.7-2.6-1.7-4.6c0-2,0.5-3.5,1.6-4.7s2.5-1.7,4.2-1.7
			c1.6,0,2.9,0.5,3.8,1.4c0.9,1,1.3,2.3,1.3,4.1V134.8z M485.9,133.3c0-1.1-0.3-1.9-0.8-2.5c-0.5-0.6-1.3-0.9-2.4-0.9
			c-1.1,0-2,0.3-2.6,1c-0.6,0.6-1,1.4-1.1,2.4H485.9z"/>
		<path class="st1" d="M499.6,137.2c0,1.1-0.5,2-1.4,2.7c-0.9,0.7-2.2,1.1-3.7,1.1c-0.9,0-1.7-0.1-2.5-0.3c-0.7-0.2-1.4-0.4-1.9-0.7
			v-2.3h0.1c0.6,0.5,1.4,0.9,2.1,1.2c0.8,0.3,1.5,0.4,2.3,0.4c0.9,0,1.6-0.1,2.1-0.4c0.5-0.3,0.8-0.7,0.8-1.4c0-0.5-0.1-0.8-0.4-1.1
			c-0.3-0.2-0.8-0.5-1.6-0.6c-0.3-0.1-0.7-0.1-1.1-0.2c-0.5-0.1-0.9-0.2-1.3-0.3c-1.1-0.3-1.8-0.7-2.3-1.2c-0.4-0.5-0.7-1.2-0.7-2
			c0-0.5,0.1-1,0.3-1.4c0.2-0.4,0.5-0.8,0.9-1.2c0.4-0.3,0.9-0.6,1.5-0.8c0.6-0.2,1.3-0.3,2.1-0.3c0.7,0,1.4,0.1,2.2,0.3
			c0.7,0.2,1.4,0.4,1.8,0.6v2.2h-0.1c-0.5-0.4-1.1-0.7-1.9-1c-0.7-0.3-1.5-0.4-2.2-0.4c-0.7,0-1.4,0.1-1.9,0.4
			c-0.5,0.3-0.8,0.7-0.8,1.3c0,0.5,0.2,0.9,0.5,1.1c0.3,0.3,0.8,0.5,1.5,0.6c0.4,0.1,0.8,0.2,1.3,0.3c0.5,0.1,0.9,0.2,1.2,0.2
			c0.9,0.2,1.7,0.6,2.2,1.1C499.4,135.6,499.6,136.3,499.6,137.2"/>
		<path class="st1" d="M519.7,140.7h-2v-1.3c-0.2,0.1-0.4,0.3-0.7,0.5c-0.3,0.2-0.6,0.4-0.9,0.5c-0.3,0.2-0.7,0.3-1.2,0.4
			c-0.4,0.1-1,0.2-1.5,0.2c-1.1,0-2-0.4-2.8-1.1c-0.8-0.7-1.1-1.6-1.1-2.8c0-0.9,0.2-1.7,0.6-2.2c0.4-0.6,1-1,1.7-1.3
			c0.7-0.3,1.6-0.5,2.6-0.7c1-0.1,2.1-0.2,3.3-0.3v-0.3c0-0.5-0.1-0.8-0.2-1.1c-0.2-0.3-0.4-0.5-0.7-0.7c-0.3-0.2-0.6-0.3-1-0.3
			c-0.4-0.1-0.8-0.1-1.3-0.1c-0.5,0-1.1,0.1-1.8,0.2c-0.7,0.1-1.3,0.3-2,0.6h-0.1v-2.1c0.4-0.1,1-0.2,1.7-0.4
			c0.7-0.1,1.5-0.2,2.2-0.2c0.8,0,1.6,0.1,2.2,0.2c0.6,0.1,1.2,0.4,1.6,0.7c0.5,0.3,0.8,0.8,1,1.3c0.2,0.5,0.4,1.2,0.4,2V140.7z
			 M518.7,126.6H517l-2-2.8l-2,2.8h-1.7l2.5-4.1h2.5L518.7,126.6z M517.7,137.7v-3.4c-0.6,0-1.3,0.1-2.2,0.2c-0.8,0.1-1.5,0.2-2,0.3
			c-0.6,0.2-1.1,0.4-1.4,0.8c-0.4,0.3-0.5,0.8-0.5,1.4c0,0.7,0.2,1.2,0.6,1.6c0.4,0.3,1.1,0.5,1.9,0.5c0.7,0,1.4-0.1,2-0.4
			C516.6,138.4,517.2,138.1,517.7,137.7"/>
		<path class="st1" d="M533.2,139.3c0,2-0.5,3.5-1.4,4.5c-0.9,1-2.4,1.4-4.3,1.4c-0.6,0-1.3,0-1.9-0.1c-0.6-0.1-1.2-0.2-1.8-0.4
			v-2.1h0.1c0.3,0.1,0.9,0.3,1.6,0.5c0.7,0.2,1.4,0.3,2.2,0.3c0.7,0,1.3-0.1,1.7-0.2c0.5-0.2,0.8-0.4,1.1-0.7c0.3-0.3,0.4-0.6,0.5-1
			c0.1-0.4,0.2-0.8,0.2-1.3V139c-0.6,0.5-1.2,0.9-1.8,1.1c-0.6,0.2-1.3,0.4-2.1,0.4c-1.4,0-2.6-0.5-3.4-1.6c-0.8-1-1.3-2.5-1.3-4.4
			c0-1,0.1-1.9,0.4-2.7c0.3-0.8,0.7-1.4,1.2-1.9c0.5-0.5,1-0.9,1.7-1.2c0.7-0.3,1.3-0.4,2-0.4c0.7,0,1.3,0.1,1.8,0.2
			c0.5,0.1,1,0.4,1.5,0.6l0.1-0.5h1.9V139.3z M531.2,137.3v-6.6c-0.5-0.2-1-0.4-1.5-0.5c-0.5-0.1-0.9-0.2-1.4-0.2
			c-1.1,0-2,0.4-2.6,1.1c-0.6,0.7-1,1.8-1,3.3c0,1.4,0.2,2.4,0.7,3.1c0.5,0.7,1.3,1,2.4,1c0.6,0,1.2-0.1,1.8-0.3
			C530.1,138,530.7,137.7,531.2,137.3"/>
		<path class="st1" d="M547.1,134.8h-8.9c0,0.7,0.1,1.4,0.3,1.9c0.2,0.6,0.5,1,0.9,1.4c0.4,0.3,0.8,0.6,1.3,0.8
			c0.5,0.2,1.1,0.3,1.7,0.3c0.8,0,1.6-0.2,2.5-0.5c0.8-0.3,1.4-0.6,1.8-1h0.1v2.2c-0.7,0.3-1.4,0.5-2.1,0.7
			c-0.7,0.2-1.5,0.3-2.2,0.3c-2,0-3.6-0.5-4.7-1.6c-1.1-1.1-1.7-2.6-1.7-4.6c0-2,0.5-3.5,1.6-4.7s2.5-1.7,4.3-1.7
			c1.6,0,2.9,0.5,3.8,1.4c0.9,1,1.3,2.3,1.3,4.1V134.8z M545.1,133.3c0-1.1-0.3-1.9-0.8-2.5c-0.5-0.6-1.3-0.9-2.4-0.9
			c-1.1,0-2,0.3-2.6,1s-1,1.4-1.1,2.4H545.1z M545.3,122.6l-2.9,4h-1.6l1.9-4H545.3z"/>
		<path class="st1" d="M560.3,134.8h-8.9c0,0.7,0.1,1.4,0.3,1.9c0.2,0.6,0.5,1,0.9,1.4c0.4,0.3,0.8,0.6,1.3,0.8
			c0.5,0.2,1.1,0.3,1.7,0.3c0.8,0,1.6-0.2,2.5-0.5c0.8-0.3,1.4-0.6,1.8-1h0.1v2.2c-0.7,0.3-1.4,0.5-2.1,0.7
			c-0.7,0.2-1.5,0.3-2.2,0.3c-2,0-3.6-0.5-4.7-1.6c-1.1-1.1-1.7-2.6-1.7-4.6c0-2,0.5-3.5,1.6-4.7c1.1-1.2,2.5-1.7,4.2-1.7
			c1.6,0,2.9,0.5,3.8,1.4c0.9,1,1.3,2.3,1.3,4.1V134.8z M558.3,133.3c0-1.1-0.3-1.9-0.8-2.5c-0.5-0.6-1.3-0.9-2.4-0.9
			c-1.1,0-2,0.3-2.6,1c-0.6,0.6-1,1.4-1.1,2.4H558.3z"/>
		<path class="st1" d="M572.1,137.2c0,1.1-0.5,2-1.4,2.7c-0.9,0.7-2.2,1.1-3.7,1.1c-0.9,0-1.7-0.1-2.5-0.3c-0.7-0.2-1.4-0.4-1.9-0.7
			v-2.3h0.1c0.6,0.5,1.4,0.9,2.1,1.2c0.8,0.3,1.5,0.4,2.3,0.4c0.9,0,1.6-0.1,2.1-0.4c0.5-0.3,0.8-0.7,0.8-1.4c0-0.5-0.1-0.8-0.4-1.1
			c-0.3-0.2-0.8-0.5-1.6-0.6c-0.3-0.1-0.7-0.1-1.1-0.2c-0.5-0.1-0.9-0.2-1.3-0.3c-1.1-0.3-1.8-0.7-2.3-1.2c-0.4-0.5-0.7-1.2-0.7-2
			c0-0.5,0.1-1,0.3-1.4c0.2-0.4,0.5-0.8,0.9-1.2c0.4-0.3,0.9-0.6,1.5-0.8c0.6-0.2,1.3-0.3,2.1-0.3c0.7,0,1.4,0.1,2.2,0.3
			c0.7,0.2,1.4,0.4,1.8,0.6v2.2h-0.1c-0.5-0.4-1.1-0.7-1.9-1c-0.7-0.3-1.5-0.4-2.2-0.4c-0.7,0-1.4,0.1-1.9,0.4
			c-0.5,0.3-0.8,0.7-0.8,1.3c0,0.5,0.2,0.9,0.5,1.1c0.3,0.3,0.8,0.5,1.5,0.6c0.4,0.1,0.8,0.2,1.3,0.3c0.5,0.1,0.9,0.2,1.2,0.2
			c0.9,0.2,1.7,0.6,2.2,1.1C571.8,135.6,572.1,136.3,572.1,137.2"/>
	</g>
</g>
</svg>
