<?xml version="1.0" encoding="utf-8"?>
<!-- Generator: Adobe Illustrator 21.0.2, SVG Export Plug-In . SVG Version: 6.00 Build 0)  -->
<svg version="1.1" id="Calque_1" xmlns="http://www.w3.org/2000/svg" xmlns:xlink="http://www.w3.org/1999/xlink" x="0px" y="0px"
	 viewBox="0 0 1122.9 305.5" style="enable-background:new 0 0 1122.9 305.5;" xml:space="preserve">
<style type="text/css">
	.st0{fill:#F7941D;}
	.st1{fill:#FFFFFF;}
</style>
<g>
	<path d="M112.6,20.4c0,6.4-5.1,11.5-11.3,11.5H68.8v108.9c0,6.4-5.1,11.5-11.3,11.5c-6.4,0-11.5-5.1-11.5-11.5V31.9H13.6
		c-6.2,0-11.3-5.1-11.3-11.5c0-6.2,5.1-11.3,11.3-11.3h87.6C107.5,9.1,112.6,14.2,112.6,20.4z"/>
	<path d="M214.9,150.7c-1.7,0.9-3.4,1.3-5.3,1.3c-4,0-7.9-2.1-9.8-6L172,93.3h-24v47.4c0,6.2-4.9,11.1-11.1,11.1
		c-6.2,0-11.1-4.9-11.1-11.1V20c0-5.9,4.7-10.9,10.6-11.3l0,0h43c22.5,0,41.3,19.8,41.3,43.4c0,16.4-10.6,31-25.5,37.4l24.4,46.1
		C222.4,141,220.4,147.8,214.9,150.7z M148.1,71h29.8c10.9,0,20.6-8.9,20.6-18.9c0-11.1-9.1-21-19.1-21h-31.3V71z"/>
	<path d="M368.9,151.4c-5.5,2.8-12.3,0.6-15.1-4.9l-14.7-29.5h-0.2h-64.6c-0.6,0-0.9,0-1.3-0.2l-13.6,29.3c-1.9,4.2-6,6.6-10.2,6.6
		c-1.7,0-3.2-0.4-4.7-1.1c-5.7-2.6-8.1-9.3-5.5-14.9l55.1-119.1c1.9-4,5.7-6.4,10-6.6h0.2c4.3,0,8.1,2.5,10.2,6.2L374,136.3
		C376.9,142,374.6,148.8,368.9,151.4z M327.8,94.4l-23-46.1l-21.3,46.1H327.8z"/>
	<path d="M506.9,140.7c0,0.2-0.2,0.2-0.2,0.2v0.8c0,0,0,0.2,0,0.4v0.6c-0.2,0.2-0.2,0.4-0.2,0.6c0,0.2,0,0.4-0.2,0.6v0.6
		c-0.2,0.2-0.2,0.4-0.2,0.4l-0.4,0.6c0,0.2,0,0.4-0.2,0.6c0,0.2-0.2,0.4-0.2,0.6l-0.4,0.6c0,0-0.2,0.2-0.2,0.4
		c-0.2,0.2-0.4,0.2-0.4,0.4c-0.2,0.2-0.2,0.4-0.4,0.4c0,0.2-0.2,0.4-0.4,0.6c-0.2,0-0.2,0.2-0.4,0.4c-0.2,0-0.2,0.2-0.4,0.4
		c-0.2,0-0.4,0.2-0.4,0.4h-0.2c0,0.2-0.2,0.2-0.2,0.2c-0.4,0.4-0.9,0.6-1.5,0.9c-0.6,0.2-0.9,0.6-1.5,0.8H499
		c-0.6,0.2-1.1,0.4-1.7,0.4h-0.4c-0.4,0.2-0.9,0.2-1.5,0.2c-0.4,0-0.9,0-1.3,0l-0.2-0.2c-0.4,0-0.8,0-0.9,0
		c-0.2-0.2-0.2-0.2-0.4-0.2c-0.4,0-0.6-0.2-0.9-0.2c0,0-0.2-0.2-0.4-0.2c-0.2,0-0.4-0.2-0.6-0.4c-0.2,0-0.4,0-0.6-0.2
		c-0.2,0-0.4-0.2-0.6-0.4c-0.2,0-0.4,0-0.4-0.2c-0.4-0.2-0.6-0.2-0.8-0.4c0-0.2-0.2-0.2-0.4-0.4c-0.2-0.2-0.6-0.4-0.8-0.8
		c-0.2,0-0.2-0.2-0.2-0.2c-0.4-0.2-0.6-0.6-0.8-0.8v-0.2L414.2,54v86.7c0,6.4-5.3,11.5-11.5,11.5c-6.4,0-11.5-5.1-11.5-11.5V20.4
		v-0.2c0-0.2,0-0.4,0-0.8c0.2,0,0.2-0.2,0.2-0.4v-0.6c0-0.2,0-0.4,0.2-0.6v-0.6c0.2-0.2,0.2-0.4,0.2-0.6c0-0.2,0.2-0.4,0.2-0.4
		c0-0.2,0.2-0.4,0.2-0.6l0.4-0.6c0-0.2,0-0.4,0.2-0.6c0-0.2,0.2-0.4,0.4-0.6c0,0,0-0.2,0.2-0.4l0.4-0.4c0-0.2,0.2-0.4,0.2-0.4
		l0.6-0.6c0,0,0.2-0.2,0.4-0.4l0.4-0.4c0,0,0.2-0.2,0.4-0.4h0.2c0-0.2,0.2-0.2,0.2-0.2c0.2-0.2,0.4-0.4,0.6-0.4
		c0.2-0.2,0.4-0.2,0.4-0.4c0.2,0,0.4-0.2,0.6-0.2c0.2-0.2,0.4-0.2,0.6-0.2l0.6-0.4c0.2,0,0.2,0,0.4-0.2c0.2,0,0.4,0,0.6-0.2h0.6
		c0.2-0.2,0.4-0.2,0.6-0.2h0.6c0.2-0.2,0.4-0.2,0.6-0.2h0.6c0.2,0,0.2,0,0.4,0h0.2c0.2,0,0.4,0,0.6,0h0.6c0.2,0.2,0.4,0.2,0.6,0.2
		h0.6c0.2,0.2,0.4,0.2,0.4,0.2l0.8,0.2c0,0,0.2,0.2,0.4,0.2c0.2,0,0.4,0.2,0.6,0.2c0.2,0,0.4,0.2,0.6,0.2l0.4,0.4
		c0.2,0,0.4,0.2,0.6,0.2c0.2,0.2,0.4,0.2,0.4,0.4c0.2,0,0.4,0.2,0.6,0.4c0.2,0,0.2,0.2,0.4,0.2l0.4,0.4c0.2,0.2,0.4,0.4,0.4,0.4
		l0.4,0.4c0.2,0.2,0.4,0.4,0.4,0.6c0.2,0,0.2,0,0.2,0.2l72.1,93.6V20.4c0-6.4,5.1-11.5,11.5-11.5c6.2,0,11.5,5.1,11.5,11.5V140.7z"
		/>
	<path d="M623.2,113.9c-1.3,22.1-21.3,34.9-39.3,37.6c-3,0.4-6.2,0.6-9.2,0.6c-18.5,0-36.8-7.7-48.1-21.1c-4-4.7-3.4-11.7,1.3-15.9
		c4.7-4,11.7-3.4,15.7,1.3c8.3,9.6,23.2,14.9,37.2,12.8c9.2-1.3,19.4-7,20-16.6c0.6-8.5-6-16.4-15.3-18.5c-3.8-0.9-8.1-1.1-12.5-1.3
		c-9.8-0.6-20.8-1.1-31-8.1c-13.8-9.4-20.6-26.6-16.4-41.7c4.5-16.4,19.6-29.1,37.6-31.7c17.4-2.5,35.9,2.5,49.3,12.8
		c4.7,3.8,5.7,10.9,1.9,15.9c-3.8,4.7-10.9,5.7-15.9,1.9c-8.5-6.8-20.8-10-32.3-8.3c-8.9,1.3-16.8,7.6-18.9,15.5
		c-1.9,6.6,2.3,13.6,7.6,17.2c4.9,3.4,11.5,3.8,19.3,4.2c5.3,0.4,10.6,0.6,16.2,1.9C610.2,76.5,624.3,94.6,623.2,113.9z"/>
	<path d="M735.3,51.8c0,22.3-19.6,41.3-43,41.3h-29.8v47.4c0,6.2-4.9,11.1-11.1,11.1c-6.2,0-11.1-4.9-11.1-11.1V19.6
		c0-5.9,4.7-10.9,10.6-11.3l0,0h43C716.3,8.3,735.3,28.2,735.3,51.8z M712.9,51.8c0-10.9-9.1-21-19.1-21h-31.3v39.8h29.8
		C703.2,70.6,712.9,61.8,712.9,51.8z"/>
	<path d="M993.4,150.7c-1.7,0.9-3.4,1.3-5.3,1.3c-4,0-7.9-2.1-9.8-6l-27.8-52.7h-24v47.4c0,6.2-4.9,11.1-11.1,11.1
		c-6.2,0-11.1-4.9-11.1-11.1V20c0-5.9,4.7-10.9,10.6-11.3l0,0h43c22.5,0,41.3,19.8,41.3,43.4c0,16.4-10.6,31-25.5,37.4l24.4,46.1
		C1000.9,141,998.9,147.8,993.4,150.7z M926.5,71h29.8c10.9,0,20.6-8.9,20.6-18.9c0-11.1-9.1-21-19.1-21h-31.3V71z"/>
	<path d="M1122.9,20.4c0,6.4-5.1,11.5-11.3,11.5h-32.5v108.9c0,6.4-5.1,11.5-11.3,11.5c-6.4,0-11.5-5.1-11.5-11.5V31.9H1024
		c-6.2,0-11.3-5.1-11.3-11.5c0-6.2,5.1-11.3,11.3-11.3h87.6C1117.8,9.1,1122.9,14.2,1122.9,20.4z"/>
</g>
<g>
	<path d="M821.5,305.1c-37.9,0-68.5-30.7-68.5-68.5c0-37.7,30.7-68.3,68.5-68.3c37.7,0,68.3,30.7,68.3,68.5
		C889.8,274.5,859.2,305.1,821.5,305.1z M821.5,190.1c-25.8,0-46.7,20.9-46.7,46.5c0,25.8,20.9,46.7,46.7,46.7
		c25.6,0,46.5-20.9,46.5-46.7C868,211,847.1,190.1,821.5,190.1z"/>
	<path d="M1016.6,294.5c0,0.2-0.2,0.2-0.2,0.2v0.7c0,0,0,0.2,0,0.4v0.5c-0.2,0.2-0.2,0.4-0.2,0.5c0,0.2,0,0.4-0.2,0.5v0.5
		c-0.2,0.2-0.2,0.4-0.2,0.4l-0.4,0.5c0,0.2,0,0.4-0.2,0.5c0,0.2-0.2,0.4-0.2,0.5l-0.4,0.5c0,0-0.2,0.2-0.2,0.4
		c-0.2,0.2-0.4,0.2-0.4,0.4c-0.2,0.2-0.2,0.4-0.4,0.4c0,0.2-0.2,0.4-0.4,0.5c-0.2,0-0.2,0.2-0.4,0.4c-0.2,0-0.2,0.2-0.4,0.4
		c-0.2,0-0.4,0.2-0.4,0.4h-0.2c0,0.2-0.2,0.2-0.2,0.2c-0.4,0.4-0.9,0.5-1.4,0.9c-0.5,0.2-0.9,0.5-1.4,0.7h-0.2
		c-0.5,0.2-1.1,0.4-1.6,0.4h-0.4c-0.4,0.2-0.9,0.2-1.4,0.2c-0.4,0-0.9,0-1.3,0l-0.2-0.2c-0.4,0-0.7,0-0.9,0
		c-0.2-0.2-0.2-0.2-0.4-0.2c-0.4,0-0.5-0.2-0.9-0.2c0,0-0.2-0.2-0.4-0.2c-0.2,0-0.4-0.2-0.5-0.4c-0.2,0-0.4,0-0.5-0.2
		c-0.2,0-0.4-0.2-0.5-0.4c-0.2,0-0.4,0-0.4-0.2c-0.4-0.2-0.5-0.2-0.7-0.4c0-0.2-0.2-0.2-0.4-0.4c-0.2-0.2-0.5-0.4-0.7-0.7
		c-0.2,0-0.2-0.2-0.2-0.2c-0.4-0.2-0.5-0.5-0.7-0.7v-0.2L928,211.7v82.8c0,6.1-5,11-11,11c-6.1,0-11-4.9-11-11V179.6v-0.2
		c0-0.2,0-0.4,0-0.7c0.2,0,0.2-0.2,0.2-0.4v-0.5c0-0.2,0-0.4,0.2-0.5v-0.5c0.2-0.2,0.2-0.4,0.2-0.5c0-0.2,0.2-0.4,0.2-0.4
		c0-0.2,0.2-0.4,0.2-0.5l0.4-0.5c0-0.2,0-0.4,0.2-0.5c0-0.2,0.2-0.4,0.4-0.5c0,0,0-0.2,0.2-0.4l0.4-0.4c0-0.2,0.2-0.4,0.2-0.4
		l0.5-0.5c0,0,0.2-0.2,0.4-0.4l0.4-0.4c0,0,0.2-0.2,0.4-0.4h0.2c0-0.2,0.2-0.2,0.2-0.2c0.2-0.2,0.4-0.4,0.5-0.4
		c0.2-0.2,0.4-0.2,0.4-0.4c0.2,0,0.4-0.2,0.5-0.2c0.2-0.2,0.4-0.2,0.5-0.2l0.5-0.4c0.2,0,0.2,0,0.4-0.2c0.2,0,0.4,0,0.5-0.2h0.5
		c0.2-0.2,0.4-0.2,0.5-0.2h0.5c0.2-0.2,0.4-0.2,0.5-0.2h0.5c0.2,0,0.2,0,0.4,0h0.2c0.2,0,0.4,0,0.5,0h0.5c0.2,0.2,0.4,0.2,0.5,0.2
		h0.5c0.2,0.2,0.4,0.2,0.4,0.2l0.7,0.2c0,0,0.2,0.2,0.4,0.2c0.2,0,0.4,0.2,0.5,0.2c0.2,0,0.4,0.2,0.5,0.2l0.4,0.4
		c0.2,0,0.4,0.2,0.5,0.2c0.2,0.2,0.4,0.2,0.4,0.4c0.2,0,0.4,0.2,0.5,0.4c0.2,0,0.2,0.2,0.4,0.2l0.4,0.4c0.2,0.2,0.4,0.4,0.4,0.4
		l0.4,0.4c0.2,0.2,0.4,0.4,0.4,0.5c0.2,0,0.2,0,0.2,0.2l68.9,89.4v-82.8c0-6.1,4.9-11,11-11c6,0,11,4.9,11,11V294.5z"/>
	<path d="M1054.3,248.2v35.7h51.6c6,0,10.8,4.9,10.8,10.8c0,6-4.9,10.6-10.8,10.6h-62.4c-6,0-10.6-4.7-10.6-10.6V179.3
		c0-6,4.7-10.8,10.6-10.8h62.4c6,0,10.8,4.9,10.8,10.8c0,6-4.9,10.8-10.8,10.8h-51.6v36.6h51.6c6,0,10.8,4.7,10.8,10.8
		c0,6-4.9,10.6-10.8,10.6H1054.3z"/>
</g>
<g>
	<title>Layer 1</title>
	<g id="XMLID_1_">
		<g>
			<path class="st0" d="M892.3,67.9c0.2,7.5-1,14.4-2.8,20.2c-1.8,5.8-4.6,10.7-7.1,15.9c-4.9,10.1-11,19.4-17.2,28.7
				c-18.3,27.7-35.5,56-43,94.7c-5.2-25.5-14.4-46.8-25.5-66.5c-8.2-14.6-17.8-28.1-26.6-42.3c-2.9-4.7-5.5-9.7-8.3-14.6
				c-5.7-9.8-10.2-21.2-10-35.9c0.3-14.4,4.5-26,10.5-35.4c9.9-15.6,26.5-28.3,48.7-31.7c18.2-2.7,35.2,1.9,47.3,9
				c9.9,5.8,17.5,13.5,23.3,22.6C887.8,42.1,891.9,53.3,892.3,67.9z M846.7,68c0-13.6-11-24.6-24.6-24.6s-24.6,11-24.6,24.6
				s11,24.6,24.6,24.6S846.7,81.6,846.7,68z"/>
			<circle class="st1" cx="822.1" cy="68" r="24.6"/>
		</g>
		<g>
		</g>
	</g>
</g>
<path class="st0" d="M578.9,287v-2.2h150.4c1.9-3.6,3.2-7.6,3.6-11.9H412.4v-2.2h320.7c0-0.3,0-0.5,0-0.8v-21.2H622.8v-13.4h110.3
	v-21.2c0-17.3-14-31.4-31.4-31.4H31.4c-10.4,0-19.7,5.1-25.4,13h158.2v2.2H4.5c-2,3.3-3.4,6.9-4,10.8h330.2v2.2H0.2
	C0.1,211.9,0,213,0,214.1v21.2h108.9v13.4H0v21.2c0,17.3,14,31.4,31.4,31.4h670.4c11,0,20.7-5.7,26.3-14.3H578.9z M467.6,235.3
	h111.3v13.4H467.6V235.3z M265.9,248.7H154.6v-13.4h111.3V248.7z M310.9,235.3h111.3v13.4H310.9V235.3z"/>
</svg>
